<svg xmlns="http://www.w3.org/2000/svg" xmlns:xlink="http://www.w3.org/1999/xlink" width="400" zoomAndPan="magnify" viewBox="0 0 300 82.499998" height="110" preserveAspectRatio="xMidYMid meet" version="1.0"><defs><clipPath id="f40cf982a9"><path d="M 36 1 L 293.996094 1 L 293.996094 81.675781 L 36 81.675781 Z M 36 1 " clip-rule="nonzero"/></clipPath><clipPath id="cfe487662d"><path d="M 6.238281 1 L 30 1 L 30 62 L 6.238281 62 Z M 6.238281 1 " clip-rule="nonzero"/></clipPath></defs><g clip-path="url(#f40cf982a9)"><path fill="#ffffff" d="M 292.824219 42.503906 C 292.363281 43.074219 291.734375 43.589844 291.390625 44.273438 C 290.871094 45.644531 290.757812 47.1875 290.011719 48.441406 C 289.496094 49.414062 288.234375 50.785156 287.542969 50.667969 C 286.570312 50.554688 285.480469 49.300781 284.90625 48.269531 C 284.273438 47.128906 283.929688 45.644531 283.929688 44.273438 C 283.816406 38.5625 283.757812 32.851562 283.871094 27.144531 C 283.929688 22.632812 283.355469 21.546875 279.050781 20.234375 C 276.125 19.261719 274.804688 19.777344 273.773438 22.804688 C 272.222656 27.3125 270.847656 31.996094 269.414062 36.566406 C 269.238281 37.136719 269.011719 37.648438 268.839844 38.222656 C 268.320312 37.363281 268.148438 36.621094 268.148438 35.824219 C 268.035156 32.28125 267.863281 28.628906 267.691406 25.085938 C 267.574219 22.175781 265.910156 20.632812 262.757812 19.890625 C 259.945312 19.261719 258.910156 21.148438 258.050781 23.144531 C 257.363281 24.800781 256.730469 26.515625 256.101562 28.171875 C 255.527344 29.769531 254.953125 31.484375 254.265625 33.367188 C 253.976562 32.910156 253.863281 32.851562 253.863281 32.738281 C 253.863281 30.167969 253.804688 27.484375 253.804688 24.914062 C 253.804688 21.03125 253.691406 20.863281 249.902344 20.121094 C 247.320312 19.605469 246.804688 20.003906 246.6875 22.574219 C 246.632812 28.457031 246.746094 34.339844 246.402344 40.277344 C 246.289062 42.789062 245.484375 45.414062 244.566406 47.8125 C 243.992188 49.46875 242.960938 51.527344 240.605469 51.183594 C 238.195312 50.839844 237.96875 48.613281 237.851562 46.785156 C 237.738281 39.535156 237.679688 32.28125 237.738281 24.972656 C 237.738281 23.03125 237.679688 21.546875 235.441406 21.03125 C 233.320312 20.519531 231.023438 19.492188 229.933594 22.574219 C 223.105469 17.320312 217.425781 18.632812 213.582031 26.34375 C 210.828125 31.824219 210.539062 37.820312 211.113281 43.816406 C 211.226562 44.84375 211.515625 46.042969 211.226562 47.015625 C 210.710938 48.957031 209.964844 51.183594 207.441406 51.296875 C 204.917969 51.410156 204.054688 49.300781 203.824219 47.414062 C 203.367188 44.386719 203.023438 41.246094 203.253906 38.222656 C 203.539062 34.679688 204.515625 31.140625 205.144531 27.601562 C 205.71875 24.402344 204.226562 22.6875 200.957031 22.859375 C 199.695312 22.917969 198.546875 23.261719 197.34375 23.375 C 195.90625 23.546875 194.53125 23.832031 193.09375 24.003906 C 193.210938 23.832031 193.441406 23.546875 193.554688 23.375 C 192.75 21.890625 192.292969 19.890625 191.085938 19.089844 C 190.054688 18.464844 187.816406 18.804688 186.554688 19.492188 C 184.03125 20.863281 183.285156 24.972656 185.175781 27.257812 C 186.265625 28.570312 186.324219 29.710938 185.695312 31.027344 C 183.628906 35.421875 181.503906 39.878906 179.382812 44.273438 C 179.09375 44.84375 178.519531 45.359375 178.121094 45.871094 C 177.601562 44.84375 177.601562 43.988281 177.601562 43.074219 C 177.660156 36.851562 177.71875 30.625 177.71875 24.402344 C 177.71875 23.488281 177.546875 22.347656 177.027344 21.773438 C 175.078125 19.890625 171.691406 20.289062 170.027344 22.460938 C 169.742188 22.289062 169.511719 22.117188 169.226562 21.945312 C 164.347656 17.890625 158.839844 18.578125 155.28125 23.832031 C 151.207031 29.941406 150.863281 36.792969 151.09375 43.816406 C 151.148438 45.757812 150.519531 48.042969 149.484375 49.699219 C 148.050781 52.152344 145.46875 51.753906 144.492188 49.128906 C 143.976562 47.699219 143.632812 46.101562 143.632812 44.617188 C 143.574219 37.820312 143.574219 31.082031 143.746094 24.289062 C 143.804688 21.488281 142.082031 21.089844 140.019531 20.691406 C 138.125 20.289062 136.519531 20.289062 136.117188 22.917969 C 131.066406 18.40625 125.84375 18.179688 122.289062 22.519531 C 120.625 24.515625 119.1875 27.027344 118.441406 29.484375 C 117.46875 32.738281 117.179688 36.222656 116.835938 39.589844 C 116.378906 43.304688 115 46.5 112.304688 49.128906 C 110.410156 50.898438 108.804688 50.554688 107.886719 48.214844 C 107.3125 46.558594 106.851562 44.730469 106.851562 42.960938 C 106.910156 35.367188 107.140625 27.769531 107.253906 20.175781 C 107.253906 18.804688 107.828125 18.234375 109.203125 18.292969 C 111.441406 18.292969 113.621094 18.234375 115.859375 18.234375 C 117.8125 18.234375 118.386719 17.09375 118.5 15.4375 C 118.671875 13.550781 117.351562 13.550781 116.089844 13.496094 C 115.113281 13.4375 114.140625 13.4375 113.164062 13.382812 C 107.539062 13.210938 107.539062 13.210938 107.769531 7.726562 C 107.769531 7.441406 107.769531 7.214844 107.769531 7.042969 C 107.886719 2.761719 107.828125 2.644531 103.523438 1.730469 C 103.179688 1.675781 102.894531 1.617188 102.546875 1.5625 C 100.769531 1.160156 99.910156 1.847656 99.738281 3.617188 C 99.621094 6.015625 99.390625 8.355469 99.390625 10.753906 C 99.390625 12.351562 98.761719 12.980469 97.097656 12.753906 C 95.546875 12.640625 94 12.582031 92.390625 12.582031 C 90.039062 12.640625 90.097656 14.523438 89.867188 16.066406 C 89.582031 17.890625 90.898438 17.949219 92.21875 17.949219 C 93.710938 17.949219 95.144531 18.0625 96.636719 18.0625 C 98.1875 18.0625 98.761719 18.691406 98.761719 20.289062 C 98.703125 25.257812 98.820312 30.285156 98.589844 35.25 C 98.417969 39.476562 96.179688 42.902344 92.738281 46.386719 C 93.367188 37.191406 85.507812 34.964844 81.03125 30.453125 C 82.179688 28.226562 83.5 26.285156 84.242188 24.171875 C 85.335938 20.976562 83.84375 19.261719 80.515625 19.378906 C 74.890625 19.546875 71.332031 25.945312 73.859375 30.910156 C 74.316406 31.769531 74.375 33.195312 73.972656 33.9375 C 71.964844 37.765625 69.785156 41.53125 67.375 45.128906 C 66.914062 46.5 65.308594 47.472656 63.988281 48.558594 C 63.53125 46.902344 62.613281 45.246094 62.613281 43.589844 C 62.554688 37.765625 62.785156 31.996094 63.011719 26.171875 C 63.070312 24.058594 62.324219 22.632812 60.546875 21.488281 C 56.585938 19.089844 53.601562 19.207031 50.847656 22.917969 C 48.609375 25.886719 47.0625 29.371094 45.398438 32.683594 C 44.59375 34.167969 44.25 35.707031 43.617188 37.25 C 43.445312 37.191406 43.214844 37.191406 42.988281 37.136719 C 42.988281 36.28125 42.988281 35.367188 42.988281 34.566406 C 43.042969 30.796875 43.101562 27.027344 43.101562 23.316406 C 43.101562 21.320312 40.75 19.832031 38.050781 19.890625 C 35.816406 19.949219 36.214844 21.660156 36.214844 22.917969 C 36.160156 31.597656 36.160156 40.277344 36.101562 48.898438 C 36.101562 49.925781 36.160156 51.011719 36.386719 52.097656 C 36.90625 54.839844 37.996094 55.523438 40.804688 55.582031 C 43.445312 55.636719 43.445312 53.925781 43.789062 52.097656 C 45.339844 43.875 47.691406 35.9375 52.511719 28.855469 C 53.144531 27.886719 54.0625 26.972656 54.921875 26.058594 C 55.496094 27.429688 55.496094 28.457031 55.496094 29.484375 C 55.4375 36.050781 55.210938 42.5625 55.4375 49.128906 C 55.496094 51.582031 56.011719 54.382812 58.9375 55.351562 C 61.808594 56.324219 64.101562 54.78125 65.941406 52.839844 C 67.488281 51.296875 68.921875 49.527344 70.128906 47.699219 C 72.367188 44.332031 74.316406 40.847656 76.382812 37.421875 C 76.84375 36.621094 77.359375 35.9375 78.21875 34.679688 C 80.570312 37.25 82.925781 39.476562 84.703125 41.988281 C 86.480469 44.503906 86.136719 47.871094 84.359375 49.414062 C 82.808594 50.839844 80.914062 50.5 77.933594 48.5 C 75.695312 47.015625 74.71875 47.1875 73.339844 49.414062 C 71.792969 51.867188 72.195312 53.183594 74.890625 54.382812 C 82.007812 57.578125 90.269531 55.464844 94.972656 49.183594 C 96.351562 47.359375 97.441406 45.359375 98.875 43.1875 C 99.507812 45.472656 99.910156 47.414062 100.539062 49.300781 C 101.628906 52.496094 103.523438 54.953125 107.195312 55.464844 C 110.8125 55.980469 112.992188 53.695312 114.886719 51.125 C 115.804688 49.8125 116.492188 48.5 117.410156 46.902344 C 120.96875 57.578125 131.066406 58.433594 137.4375 49.183594 C 141.683594 57.351562 145.640625 57.691406 152.8125 50.5 C 159.242188 57.234375 160.960938 57.292969 170.488281 51.070312 C 170.601562 51.183594 170.773438 51.242188 170.832031 51.410156 C 171.289062 53.066406 170.429688 54.152344 169.339844 55.238281 C 165.265625 59.292969 160.675781 63.117188 157.289062 67.800781 C 152.757812 74.140625 156.832031 81.277344 164.691406 81.5625 C 167.734375 81.675781 170.316406 80.648438 172.554688 78.648438 C 174.964844 76.539062 176.398438 73.796875 176.628906 70.769531 C 177.199219 65.460938 177.199219 60.035156 177.660156 54.722656 C 177.773438 53.238281 178.234375 51.46875 179.152344 50.328125 C 183.628906 44.617188 187.359375 38.507812 190.054688 31.824219 C 191.546875 28.226562 193.039062 27.484375 197.167969 28.800781 C 197.054688 29.65625 196.824219 30.453125 196.769531 31.367188 C 196.421875 35.421875 195.90625 39.476562 195.851562 43.53125 C 195.792969 46.785156 196.710938 49.871094 198.832031 52.382812 C 202.5625 56.78125 207.957031 56.664062 211.457031 52.097656 C 211.859375 51.640625 212.261719 51.183594 212.777344 50.554688 C 215.128906 54.265625 218.171875 56.039062 222.417969 55.464844 C 226.433594 54.894531 228.902344 52.152344 231.3125 48.84375 C 232.574219 52.382812 234.351562 54.839844 237.96875 55.523438 C 241.753906 56.152344 244.105469 54.152344 245.597656 51.070312 C 246.515625 52.609375 246.917969 54.324219 247.953125 54.953125 C 251.796875 57.238281 254.78125 55.410156 254.894531 51.125 C 254.894531 49.984375 254.894531 48.84375 254.953125 47.699219 C 255.238281 41.988281 256.558594 36.566406 258.96875 31.367188 C 259.371094 30.570312 259.945312 29.882812 260.746094 28.742188 C 260.863281 29.882812 261.035156 30.398438 261.035156 30.855469 C 261.609375 36.621094 262.125 42.390625 262.871094 48.15625 C 262.984375 49.46875 263.730469 51.070312 264.707031 51.699219 C 265.96875 52.496094 267.75 52.78125 269.183594 52.609375 C 269.757812 52.554688 270.332031 50.613281 270.617188 49.414062 C 271.878906 44.046875 272.914062 38.621094 274.117188 33.140625 C 274.460938 31.710938 275.207031 30.398438 275.78125 29.085938 C 276.242188 29.65625 276.296875 30.167969 276.355469 30.625 C 276.46875 34.964844 276.46875 39.304688 276.757812 43.589844 C 276.929688 46.902344 277.617188 50.042969 279.796875 52.726562 C 283.527344 57.121094 289.496094 56.4375 291.789062 51.242188 C 292.652344 49.242188 293.054688 47.015625 293.339844 44.902344 C 293.914062 44.046875 293.167969 43.304688 292.824219 42.503906 Z M 134.738281 46.386719 C 133.820312 48.726562 132.386719 51.125 129.515625 50.839844 C 126.535156 50.554688 125.789062 47.871094 125.328125 45.472656 C 124.871094 43.417969 124.8125 41.246094 124.410156 38.277344 C 124.984375 35.707031 125.445312 32.167969 126.476562 28.914062 C 127.394531 26.058594 129.515625 24.628906 131.699219 24.914062 C 134.507812 25.257812 135.542969 27.371094 136 29.65625 C 137.265625 35.25 136.917969 40.960938 134.738281 46.386719 Z M 169.398438 44.84375 C 169.109375 45.929688 168.765625 47.242188 167.960938 47.929688 C 166.644531 49.183594 165.09375 50.554688 163.488281 50.785156 C 161.421875 51.070312 160.386719 48.898438 159.871094 47.015625 C 158.09375 40.90625 158.4375 34.910156 160.734375 29.027344 C 161.132812 28.058594 161.707031 27.144531 162.398438 26.402344 C 164.863281 23.773438 168.535156 24.34375 169.625 27.714844 C 170.488281 30.167969 170.601562 32.851562 171.0625 35.480469 C 170.601562 38.621094 170.085938 41.820312 169.398438 44.84375 Z M 169.511719 75.394531 C 168.421875 77.851562 165.726562 78.878906 163.601562 78.023438 C 161.652344 77.222656 160.675781 75.050781 161.363281 72.367188 C 162.914062 66.886719 166.988281 63.117188 171.0625 59.40625 C 171.691406 65.058594 171.75 70.371094 169.511719 75.394531 Z M 228.84375 45.53125 C 228.441406 46.957031 227.523438 48.386719 226.492188 49.46875 C 224.367188 51.8125 221.730469 51.410156 220.292969 48.613281 C 219.605469 47.242188 218.972656 45.703125 218.917969 44.21875 C 218.859375 39.992188 218.972656 35.707031 219.375 31.539062 C 219.492188 29.941406 220.351562 28.226562 221.328125 26.859375 C 223.621094 23.601562 227.695312 24.058594 229.074219 27.769531 C 229.992188 30.285156 230.164062 33.140625 230.738281 35.992188 C 230.164062 39.191406 229.703125 42.445312 228.84375 45.53125 Z M 228.84375 45.53125 " fill-opacity="1" fill-rule="nonzero"/></g><g clip-path="url(#cfe487662d)"><path fill="#ffffff" d="M 12.746094 32.511719 C 13.722656 33.082031 14.871094 33.140625 16.019531 33.480469 C 16.191406 33.367188 16.363281 33.195312 16.535156 33.023438 C 10.855469 22.804688 13.609375 14.125 20.4375 6.128906 C 20.78125 6.1875 21.066406 6.242188 21.355469 6.300781 C 21.410156 6.929688 21.46875 7.613281 21.46875 8.242188 C 21.410156 22.230469 21.410156 36.222656 21.183594 50.15625 C 21.125 53.125 20.265625 56.09375 19.804688 59.0625 C 19.691406 59.921875 19.519531 60.664062 19.289062 61.917969 C 22.617188 61.519531 24.796875 59.921875 25.886719 57.578125 C 27.320312 54.382812 28.757812 50.953125 28.8125 47.585938 C 29.214844 33.480469 29.101562 19.320312 29.101562 5.160156 C 29.101562 4.246094 28.527344 2.929688 27.78125 2.53125 C 25.65625 1.105469 23.191406 0.417969 20.609375 1.847656 C 12.976562 6.070312 8.328125 12.523438 7.007812 21.148438 C 6.320312 26.113281 8.386719 30 12.746094 32.511719 Z M 12.746094 32.511719 " fill-opacity="1" fill-rule="nonzero"/></g></svg>